<?xml version="1.0" encoding="utf-8" standalone="no"?>
<!DOCTYPE svg PUBLIC "-//W3C//DTD SVG 1.1//EN" "http://www.w3.org/Graphics/SVG/1.1/DTD/svg11.dtd">
<svg xmlns="http://www.w3.org/2000/svg" xmlns:xl="http://www.w3.org/1999/xlink" version="1.1" viewBox="70 70 155 155" width="155pt" height="155pt" xmlns:dc="http://purl.org/dc/elements/1.1/"><metadata> Produced by OmniGraffle 6.0.5 <dc:date>2014-05-14 22:12Z</dc:date></metadata><defs/><g stroke="none" stroke-opacity="1" stroke-dasharray="none" fill="none" fill-opacity="1"><title>Canvas 1</title><g><title>Layer 1</title><rect x="72" y="72" width="9" height="9" stroke="black" stroke-opacity=".2" stroke-linecap="round" stroke-linejoin="miter" stroke-width=".25"/><rect x="72" y="81" width="9" height="9" stroke="black" stroke-opacity=".2" stroke-linecap="round" stroke-linejoin="miter" stroke-width=".25"/><rect x="72" y="90" width="9" height="9" stroke="black" stroke-opacity=".2" stroke-linecap="round" stroke-linejoin="miter" stroke-width=".25"/><rect x="72" y="99" width="9" height="9" stroke="black" stroke-opacity=".2" stroke-linecap="round" stroke-linejoin="miter" stroke-width=".25"/><rect x="72" y="108" width="9" height="9" stroke="black" stroke-opacity=".2" stroke-linecap="round" stroke-linejoin="miter" stroke-width=".25"/><rect x="72" y="117" width="9" height="9" stroke="black" stroke-opacity=".2" stroke-linecap="round" stroke-linejoin="miter" stroke-width=".25"/><rect x="72" y="126" width="9" height="9" stroke="black" stroke-opacity=".2" stroke-linecap="round" stroke-linejoin="miter" stroke-width=".25"/><rect x="72" y="135" width="9" height="9" stroke="black" stroke-opacity=".2" stroke-linecap="round" stroke-linejoin="miter" stroke-width=".25"/><rect x="81" y="72" width="9" height="9" stroke="black" stroke-opacity=".2" stroke-linecap="round" stroke-linejoin="miter" stroke-width=".25"/><rect x="81" y="81" width="9" height="9" stroke="black" stroke-opacity=".2" stroke-linecap="round" stroke-linejoin="miter" stroke-width=".25"/><rect x="81" y="90" width="9" height="9" stroke="black" stroke-opacity=".2" stroke-linecap="round" stroke-linejoin="miter" stroke-width=".25"/><rect x="81" y="99" width="9" height="9" stroke="black" stroke-opacity=".2" stroke-linecap="round" stroke-linejoin="miter" stroke-width=".25"/><rect x="81" y="108" width="9" height="9" stroke="black" stroke-opacity=".2" stroke-linecap="round" stroke-linejoin="miter" stroke-width=".25"/><rect x="81" y="117" width="9" height="9" stroke="black" stroke-opacity=".2" stroke-linecap="round" stroke-linejoin="miter" stroke-width=".25"/><rect x="81" y="126" width="9" height="9" stroke="black" stroke-opacity=".2" stroke-linecap="round" stroke-linejoin="miter" stroke-width=".25"/><rect x="81" y="135" width="9" height="9" stroke="black" stroke-opacity=".2" stroke-linecap="round" stroke-linejoin="miter" stroke-width=".25"/><rect x="90" y="72" width="9" height="9" stroke="black" stroke-opacity=".2" stroke-linecap="round" stroke-linejoin="miter" stroke-width=".25"/><rect x="90" y="81" width="9" height="9" stroke="black" stroke-opacity=".2" stroke-linecap="round" stroke-linejoin="miter" stroke-width=".25"/><rect x="90" y="90" width="9" height="9" stroke="black" stroke-opacity=".2" stroke-linecap="round" stroke-linejoin="miter" stroke-width=".25"/><rect x="90" y="99" width="9" height="9" stroke="black" stroke-opacity=".2" stroke-linecap="round" stroke-linejoin="miter" stroke-width=".25"/><rect x="90" y="108" width="9" height="9" stroke="black" stroke-opacity=".2" stroke-linecap="round" stroke-linejoin="miter" stroke-width=".25"/><rect x="90" y="117" width="9" height="9" stroke="black" stroke-opacity=".2" stroke-linecap="round" stroke-linejoin="miter" stroke-width=".25"/><rect x="90" y="126" width="9" height="9" stroke="black" stroke-opacity=".2" stroke-linecap="round" stroke-linejoin="miter" stroke-width=".25"/><rect x="90" y="135" width="9" height="9" stroke="black" stroke-opacity=".2" stroke-linecap="round" stroke-linejoin="miter" stroke-width=".25"/><rect x="99" y="72" width="9" height="9" stroke="black" stroke-opacity=".2" stroke-linecap="round" stroke-linejoin="miter" stroke-width=".25"/><rect x="99" y="81" width="9" height="9" stroke="black" stroke-opacity=".2" stroke-linecap="round" stroke-linejoin="miter" stroke-width=".25"/><rect x="99" y="90" width="9" height="9" stroke="black" stroke-opacity=".2" stroke-linecap="round" stroke-linejoin="miter" stroke-width=".25"/><rect x="99" y="99" width="9" height="9" stroke="black" stroke-opacity=".2" stroke-linecap="round" stroke-linejoin="miter" stroke-width=".25"/><rect x="99" y="108" width="9" height="9" stroke="black" stroke-opacity=".2" stroke-linecap="round" stroke-linejoin="miter" stroke-width=".25"/><rect x="99" y="117" width="9" height="9" stroke="black" stroke-opacity=".2" stroke-linecap="round" stroke-linejoin="miter" stroke-width=".25"/><rect x="99" y="126" width="9" height="9" stroke="black" stroke-opacity=".2" stroke-linecap="round" stroke-linejoin="miter" stroke-width=".25"/><rect x="99" y="135" width="9" height="9" stroke="black" stroke-opacity=".2" stroke-linecap="round" stroke-linejoin="miter" stroke-width=".25"/><rect x="108" y="72" width="9" height="9" stroke="black" stroke-opacity=".2" stroke-linecap="round" stroke-linejoin="miter" stroke-width=".25"/><rect x="108" y="81" width="9" height="9" stroke="black" stroke-opacity=".2" stroke-linecap="round" stroke-linejoin="miter" stroke-width=".25"/><rect x="108" y="90" width="9" height="9" stroke="black" stroke-opacity=".2" stroke-linecap="round" stroke-linejoin="miter" stroke-width=".25"/><rect x="108" y="99" width="9" height="9" stroke="black" stroke-opacity=".2" stroke-linecap="round" stroke-linejoin="miter" stroke-width=".25"/><rect x="108" y="108" width="9" height="9" stroke="black" stroke-opacity=".2" stroke-linecap="round" stroke-linejoin="miter" stroke-width=".25"/><rect x="108" y="117" width="9" height="9" stroke="black" stroke-opacity=".2" stroke-linecap="round" stroke-linejoin="miter" stroke-width=".25"/><rect x="108" y="126" width="9" height="9" stroke="black" stroke-opacity=".2" stroke-linecap="round" stroke-linejoin="miter" stroke-width=".25"/><rect x="108" y="135" width="9" height="9" stroke="black" stroke-opacity=".2" stroke-linecap="round" stroke-linejoin="miter" stroke-width=".25"/><rect x="117" y="72" width="9" height="9" stroke="black" stroke-opacity=".2" stroke-linecap="round" stroke-linejoin="miter" stroke-width=".25"/><rect x="117" y="81" width="9" height="9" stroke="black" stroke-opacity=".2" stroke-linecap="round" stroke-linejoin="miter" stroke-width=".25"/><rect x="117" y="90" width="9" height="9" stroke="black" stroke-opacity=".2" stroke-linecap="round" stroke-linejoin="miter" stroke-width=".25"/><rect x="117" y="99" width="9" height="9" stroke="black" stroke-opacity=".2" stroke-linecap="round" stroke-linejoin="miter" stroke-width=".25"/><rect x="117" y="108" width="9" height="9" stroke="black" stroke-opacity=".2" stroke-linecap="round" stroke-linejoin="miter" stroke-width=".25"/><rect x="117" y="117" width="9" height="9" stroke="black" stroke-opacity=".2" stroke-linecap="round" stroke-linejoin="miter" stroke-width=".25"/><rect x="117" y="126" width="9" height="9" stroke="black" stroke-opacity=".2" stroke-linecap="round" stroke-linejoin="miter" stroke-width=".25"/><rect x="117" y="135" width="9" height="9" stroke="black" stroke-opacity=".2" stroke-linecap="round" stroke-linejoin="miter" stroke-width=".25"/><rect x="126" y="72" width="9" height="9" stroke="black" stroke-opacity=".2" stroke-linecap="round" stroke-linejoin="miter" stroke-width=".25"/><rect x="126" y="81" width="9" height="9" stroke="black" stroke-opacity=".2" stroke-linecap="round" stroke-linejoin="miter" stroke-width=".25"/><rect x="126" y="90" width="9" height="9" stroke="black" stroke-opacity=".2" stroke-linecap="round" stroke-linejoin="miter" stroke-width=".25"/><rect x="126" y="99" width="9" height="9" stroke="black" stroke-opacity=".2" stroke-linecap="round" stroke-linejoin="miter" stroke-width=".25"/><rect x="126" y="108" width="9" height="9" stroke="black" stroke-opacity=".2" stroke-linecap="round" stroke-linejoin="miter" stroke-width=".25"/><rect x="126" y="117" width="9" height="9" stroke="black" stroke-opacity=".2" stroke-linecap="round" stroke-linejoin="miter" stroke-width=".25"/><rect x="126" y="126" width="9" height="9" stroke="black" stroke-opacity=".2" stroke-linecap="round" stroke-linejoin="miter" stroke-width=".25"/><rect x="126" y="135" width="9" height="9" stroke="black" stroke-opacity=".2" stroke-linecap="round" stroke-linejoin="miter" stroke-width=".25"/><rect x="135" y="72" width="9" height="9" stroke="black" stroke-opacity=".2" stroke-linecap="round" stroke-linejoin="miter" stroke-width=".25"/><rect x="135" y="81" width="9" height="9" stroke="black" stroke-opacity=".2" stroke-linecap="round" stroke-linejoin="miter" stroke-width=".25"/><rect x="135" y="90" width="9" height="9" stroke="black" stroke-opacity=".2" stroke-linecap="round" stroke-linejoin="miter" stroke-width=".25"/><rect x="135" y="99" width="9" height="9" stroke="black" stroke-opacity=".2" stroke-linecap="round" stroke-linejoin="miter" stroke-width=".25"/><rect x="135" y="108" width="9" height="9" stroke="black" stroke-opacity=".2" stroke-linecap="round" stroke-linejoin="miter" stroke-width=".25"/><rect x="135" y="117" width="9" height="9" stroke="black" stroke-opacity=".2" stroke-linecap="round" stroke-linejoin="miter" stroke-width=".25"/><rect x="135" y="126" width="9" height="9" stroke="black" stroke-opacity=".2" stroke-linecap="round" stroke-linejoin="miter" stroke-width=".25"/><rect x="135" y="135" width="9" height="9" stroke="black" stroke-opacity=".2" stroke-linecap="round" stroke-linejoin="miter" stroke-width=".25"/><rect x="144" y="72" width="9" height="9" stroke="black" stroke-opacity=".2" stroke-linecap="round" stroke-linejoin="miter" stroke-width=".25"/><rect x="144" y="81" width="9" height="9" stroke="black" stroke-opacity=".2" stroke-linecap="round" stroke-linejoin="miter" stroke-width=".25"/><rect x="144" y="90" width="9" height="9" stroke="black" stroke-opacity=".2" stroke-linecap="round" stroke-linejoin="miter" stroke-width=".25"/><rect x="144" y="99" width="9" height="9" stroke="black" stroke-opacity=".2" stroke-linecap="round" stroke-linejoin="miter" stroke-width=".25"/><rect x="144" y="108" width="9" height="9" stroke="black" stroke-opacity=".2" stroke-linecap="round" stroke-linejoin="miter" stroke-width=".25"/><rect x="144" y="117" width="9" height="9" stroke="black" stroke-opacity=".2" stroke-linecap="round" stroke-linejoin="miter" stroke-width=".25"/><rect x="144" y="126" width="9" height="9" stroke="black" stroke-opacity=".2" stroke-linecap="round" stroke-linejoin="miter" stroke-width=".25"/><rect x="144" y="135" width="9" height="9" stroke="black" stroke-opacity=".2" stroke-linecap="round" stroke-linejoin="miter" stroke-width=".25"/><rect x="153" y="72" width="9" height="9" stroke="black" stroke-opacity=".2" stroke-linecap="round" stroke-linejoin="miter" stroke-width=".25"/><rect x="153" y="81" width="9" height="9" stroke="black" stroke-opacity=".2" stroke-linecap="round" stroke-linejoin="miter" stroke-width=".25"/><rect x="153" y="90" width="9" height="9" stroke="black" stroke-opacity=".2" stroke-linecap="round" stroke-linejoin="miter" stroke-width=".25"/><rect x="153" y="99" width="9" height="9" stroke="black" stroke-opacity=".2" stroke-linecap="round" stroke-linejoin="miter" stroke-width=".25"/><rect x="153" y="108" width="9" height="9" stroke="black" stroke-opacity=".2" stroke-linecap="round" stroke-linejoin="miter" stroke-width=".25"/><rect x="153" y="117" width="9" height="9" stroke="black" stroke-opacity=".2" stroke-linecap="round" stroke-linejoin="miter" stroke-width=".25"/><rect x="153" y="126" width="9" height="9" stroke="black" stroke-opacity=".2" stroke-linecap="round" stroke-linejoin="miter" stroke-width=".25"/><rect x="153" y="135" width="9" height="9" stroke="black" stroke-opacity=".2" stroke-linecap="round" stroke-linejoin="miter" stroke-width=".25"/><rect x="162" y="72" width="9" height="9" stroke="black" stroke-opacity=".2" stroke-linecap="round" stroke-linejoin="miter" stroke-width=".25"/><rect x="162" y="81" width="9" height="9" stroke="black" stroke-opacity=".2" stroke-linecap="round" stroke-linejoin="miter" stroke-width=".25"/><rect x="162" y="90" width="9" height="9" stroke="black" stroke-opacity=".2" stroke-linecap="round" stroke-linejoin="miter" stroke-width=".25"/><rect x="162" y="99" width="9" height="9" stroke="black" stroke-opacity=".2" stroke-linecap="round" stroke-linejoin="miter" stroke-width=".25"/><rect x="162" y="108" width="9" height="9" stroke="black" stroke-opacity=".2" stroke-linecap="round" stroke-linejoin="miter" stroke-width=".25"/><rect x="162" y="117" width="9" height="9" stroke="black" stroke-opacity=".2" stroke-linecap="round" stroke-linejoin="miter" stroke-width=".25"/><rect x="162" y="126" width="9" height="9" stroke="black" stroke-opacity=".2" stroke-linecap="round" stroke-linejoin="miter" stroke-width=".25"/><rect x="162" y="135" width="9" height="9" stroke="black" stroke-opacity=".2" stroke-linecap="round" stroke-linejoin="miter" stroke-width=".25"/><rect x="171" y="72" width="9" height="9" stroke="black" stroke-opacity=".2" stroke-linecap="round" stroke-linejoin="miter" stroke-width=".25"/><rect x="171" y="81" width="9" height="9" stroke="black" stroke-opacity=".2" stroke-linecap="round" stroke-linejoin="miter" stroke-width=".25"/><rect x="171" y="90" width="9" height="9" stroke="black" stroke-opacity=".2" stroke-linecap="round" stroke-linejoin="miter" stroke-width=".25"/><rect x="171" y="99" width="9" height="9" stroke="black" stroke-opacity=".2" stroke-linecap="round" stroke-linejoin="miter" stroke-width=".25"/><rect x="171" y="108" width="9" height="9" stroke="black" stroke-opacity=".2" stroke-linecap="round" stroke-linejoin="miter" stroke-width=".25"/><rect x="171" y="117" width="9" height="9" stroke="black" stroke-opacity=".2" stroke-linecap="round" stroke-linejoin="miter" stroke-width=".25"/><rect x="171" y="126" width="9" height="9" stroke="black" stroke-opacity=".2" stroke-linecap="round" stroke-linejoin="miter" stroke-width=".25"/><rect x="171" y="135" width="9" height="9" stroke="black" stroke-opacity=".2" stroke-linecap="round" stroke-linejoin="miter" stroke-width=".25"/><rect x="180" y="72" width="9" height="9" stroke="black" stroke-opacity=".2" stroke-linecap="round" stroke-linejoin="miter" stroke-width=".25"/><rect x="180" y="81" width="9" height="9" stroke="black" stroke-opacity=".2" stroke-linecap="round" stroke-linejoin="miter" stroke-width=".25"/><rect x="180" y="90" width="9" height="9" stroke="black" stroke-opacity=".2" stroke-linecap="round" stroke-linejoin="miter" stroke-width=".25"/><rect x="180" y="99" width="9" height="9" stroke="black" stroke-opacity=".2" stroke-linecap="round" stroke-linejoin="miter" stroke-width=".25"/><rect x="180" y="108" width="9" height="9" stroke="black" stroke-opacity=".2" stroke-linecap="round" stroke-linejoin="miter" stroke-width=".25"/><rect x="180" y="117" width="9" height="9" stroke="black" stroke-opacity=".2" stroke-linecap="round" stroke-linejoin="miter" stroke-width=".25"/><rect x="180" y="126" width="9" height="9" stroke="black" stroke-opacity=".2" stroke-linecap="round" stroke-linejoin="miter" stroke-width=".25"/><rect x="180" y="135" width="9" height="9" stroke="black" stroke-opacity=".2" stroke-linecap="round" stroke-linejoin="miter" stroke-width=".25"/><rect x="189" y="72" width="9" height="9" stroke="black" stroke-opacity=".2" stroke-linecap="round" stroke-linejoin="miter" stroke-width=".25"/><rect x="189" y="81" width="9" height="9" stroke="black" stroke-opacity=".2" stroke-linecap="round" stroke-linejoin="miter" stroke-width=".25"/><rect x="189" y="90" width="9" height="9" stroke="black" stroke-opacity=".2" stroke-linecap="round" stroke-linejoin="miter" stroke-width=".25"/><rect x="189" y="99" width="9" height="9" stroke="black" stroke-opacity=".2" stroke-linecap="round" stroke-linejoin="miter" stroke-width=".25"/><rect x="189" y="108" width="9" height="9" stroke="black" stroke-opacity=".2" stroke-linecap="round" stroke-linejoin="miter" stroke-width=".25"/><rect x="189" y="117" width="9" height="9" stroke="black" stroke-opacity=".2" stroke-linecap="round" stroke-linejoin="miter" stroke-width=".25"/><rect x="189" y="126" width="9" height="9" stroke="black" stroke-opacity=".2" stroke-linecap="round" stroke-linejoin="miter" stroke-width=".25"/><rect x="189" y="135" width="9" height="9" stroke="black" stroke-opacity=".2" stroke-linecap="round" stroke-linejoin="miter" stroke-width=".25"/><rect x="198" y="72" width="9" height="9" stroke="black" stroke-opacity=".2" stroke-linecap="round" stroke-linejoin="miter" stroke-width=".25"/><rect x="198" y="81" width="9" height="9" stroke="black" stroke-opacity=".2" stroke-linecap="round" stroke-linejoin="miter" stroke-width=".25"/><rect x="198" y="90" width="9" height="9" stroke="black" stroke-opacity=".2" stroke-linecap="round" stroke-linejoin="miter" stroke-width=".25"/><rect x="198" y="99" width="9" height="9" stroke="black" stroke-opacity=".2" stroke-linecap="round" stroke-linejoin="miter" stroke-width=".25"/><rect x="198" y="108" width="9" height="9" stroke="black" stroke-opacity=".2" stroke-linecap="round" stroke-linejoin="miter" stroke-width=".25"/><rect x="198" y="117" width="9" height="9" stroke="black" stroke-opacity=".2" stroke-linecap="round" stroke-linejoin="miter" stroke-width=".25"/><rect x="198" y="126" width="9" height="9" stroke="black" stroke-opacity=".2" stroke-linecap="round" stroke-linejoin="miter" stroke-width=".25"/><rect x="198" y="135" width="9" height="9" stroke="black" stroke-opacity=".2" stroke-linecap="round" stroke-linejoin="miter" stroke-width=".25"/><rect x="207" y="72" width="9" height="9" stroke="black" stroke-opacity=".2" stroke-linecap="round" stroke-linejoin="miter" stroke-width=".25"/><rect x="207" y="81" width="9" height="9" stroke="black" stroke-opacity=".2" stroke-linecap="round" stroke-linejoin="miter" stroke-width=".25"/><rect x="207" y="90" width="9" height="9" stroke="black" stroke-opacity=".2" stroke-linecap="round" stroke-linejoin="miter" stroke-width=".25"/><rect x="207" y="99" width="9" height="9" stroke="black" stroke-opacity=".2" stroke-linecap="round" stroke-linejoin="miter" stroke-width=".25"/><rect x="207" y="108" width="9" height="9" stroke="black" stroke-opacity=".2" stroke-linecap="round" stroke-linejoin="miter" stroke-width=".25"/><rect x="207" y="117" width="9" height="9" stroke="black" stroke-opacity=".2" stroke-linecap="round" stroke-linejoin="miter" stroke-width=".25"/><rect x="207" y="126" width="9" height="9" stroke="black" stroke-opacity=".2" stroke-linecap="round" stroke-linejoin="miter" stroke-width=".25"/><rect x="207" y="135" width="9" height="9" stroke="black" stroke-opacity=".2" stroke-linecap="round" stroke-linejoin="miter" stroke-width=".25"/><rect x="72" y="144" width="9" height="9" stroke="black" stroke-opacity=".2" stroke-linecap="round" stroke-linejoin="miter" stroke-width=".25"/><rect x="72" y="153" width="9" height="9" stroke="black" stroke-opacity=".2" stroke-linecap="round" stroke-linejoin="miter" stroke-width=".25"/><rect x="72" y="162" width="9" height="9" stroke="black" stroke-opacity=".2" stroke-linecap="round" stroke-linejoin="miter" stroke-width=".25"/><rect x="72" y="171" width="9" height="9" stroke="black" stroke-opacity=".2" stroke-linecap="round" stroke-linejoin="miter" stroke-width=".25"/><rect x="72" y="180" width="9" height="9" stroke="black" stroke-opacity=".2" stroke-linecap="round" stroke-linejoin="miter" stroke-width=".25"/><rect x="72" y="189" width="9" height="9" stroke="black" stroke-opacity=".2" stroke-linecap="round" stroke-linejoin="miter" stroke-width=".25"/><rect x="72" y="198" width="9" height="9" stroke="black" stroke-opacity=".2" stroke-linecap="round" stroke-linejoin="miter" stroke-width=".25"/><rect x="72" y="207" width="9" height="9" stroke="black" stroke-opacity=".2" stroke-linecap="round" stroke-linejoin="miter" stroke-width=".25"/><rect x="81" y="144" width="9" height="9" stroke="black" stroke-opacity=".2" stroke-linecap="round" stroke-linejoin="miter" stroke-width=".25"/><rect x="81" y="153" width="9" height="9" stroke="black" stroke-opacity=".2" stroke-linecap="round" stroke-linejoin="miter" stroke-width=".25"/><rect x="81" y="162" width="9" height="9" stroke="black" stroke-opacity=".2" stroke-linecap="round" stroke-linejoin="miter" stroke-width=".25"/><rect x="81" y="171" width="9" height="9" stroke="black" stroke-opacity=".2" stroke-linecap="round" stroke-linejoin="miter" stroke-width=".25"/><rect x="81" y="180" width="9" height="9" stroke="black" stroke-opacity=".2" stroke-linecap="round" stroke-linejoin="miter" stroke-width=".25"/><rect x="81" y="189" width="9" height="9" stroke="black" stroke-opacity=".2" stroke-linecap="round" stroke-linejoin="miter" stroke-width=".25"/><rect x="81" y="198" width="9" height="9" stroke="black" stroke-opacity=".2" stroke-linecap="round" stroke-linejoin="miter" stroke-width=".25"/><rect x="81" y="207" width="9" height="9" stroke="black" stroke-opacity=".2" stroke-linecap="round" stroke-linejoin="miter" stroke-width=".25"/><rect x="90" y="144" width="9" height="9" stroke="black" stroke-opacity=".2" stroke-linecap="round" stroke-linejoin="miter" stroke-width=".25"/><rect x="90" y="153" width="9" height="9" stroke="black" stroke-opacity=".2" stroke-linecap="round" stroke-linejoin="miter" stroke-width=".25"/><rect x="90" y="162" width="9" height="9" stroke="black" stroke-opacity=".2" stroke-linecap="round" stroke-linejoin="miter" stroke-width=".25"/><rect x="90" y="171" width="9" height="9" stroke="black" stroke-opacity=".2" stroke-linecap="round" stroke-linejoin="miter" stroke-width=".25"/><rect x="90" y="180" width="9" height="9" stroke="black" stroke-opacity=".2" stroke-linecap="round" stroke-linejoin="miter" stroke-width=".25"/><rect x="90" y="189" width="9" height="9" stroke="black" stroke-opacity=".2" stroke-linecap="round" stroke-linejoin="miter" stroke-width=".25"/><rect x="90" y="198" width="9" height="9" stroke="black" stroke-opacity=".2" stroke-linecap="round" stroke-linejoin="miter" stroke-width=".25"/><rect x="90" y="207" width="9" height="9" stroke="black" stroke-opacity=".2" stroke-linecap="round" stroke-linejoin="miter" stroke-width=".25"/><rect x="99" y="144" width="9" height="9" stroke="black" stroke-opacity=".2" stroke-linecap="round" stroke-linejoin="miter" stroke-width=".25"/><rect x="99" y="153" width="9" height="9" stroke="black" stroke-opacity=".2" stroke-linecap="round" stroke-linejoin="miter" stroke-width=".25"/><rect x="99" y="162" width="9" height="9" stroke="black" stroke-opacity=".2" stroke-linecap="round" stroke-linejoin="miter" stroke-width=".25"/><rect x="99" y="171" width="9" height="9" stroke="black" stroke-opacity=".2" stroke-linecap="round" stroke-linejoin="miter" stroke-width=".25"/><rect x="99" y="180" width="9" height="9" stroke="black" stroke-opacity=".2" stroke-linecap="round" stroke-linejoin="miter" stroke-width=".25"/><rect x="99" y="189" width="9" height="9" stroke="black" stroke-opacity=".2" stroke-linecap="round" stroke-linejoin="miter" stroke-width=".25"/><rect x="99" y="198" width="9" height="9" stroke="black" stroke-opacity=".2" stroke-linecap="round" stroke-linejoin="miter" stroke-width=".25"/><rect x="99" y="207" width="9" height="9" stroke="black" stroke-opacity=".2" stroke-linecap="round" stroke-linejoin="miter" stroke-width=".25"/><rect x="108" y="144" width="9" height="9" stroke="black" stroke-opacity=".2" stroke-linecap="round" stroke-linejoin="miter" stroke-width=".25"/><rect x="108" y="153" width="9" height="9" stroke="black" stroke-opacity=".2" stroke-linecap="round" stroke-linejoin="miter" stroke-width=".25"/><rect x="108" y="162" width="9" height="9" stroke="black" stroke-opacity=".2" stroke-linecap="round" stroke-linejoin="miter" stroke-width=".25"/><rect x="108" y="171" width="9" height="9" stroke="black" stroke-opacity=".2" stroke-linecap="round" stroke-linejoin="miter" stroke-width=".25"/><rect x="108" y="180" width="9" height="9" stroke="black" stroke-opacity=".2" stroke-linecap="round" stroke-linejoin="miter" stroke-width=".25"/><rect x="108" y="189" width="9" height="9" stroke="black" stroke-opacity=".2" stroke-linecap="round" stroke-linejoin="miter" stroke-width=".25"/><rect x="108" y="198" width="9" height="9" stroke="black" stroke-opacity=".2" stroke-linecap="round" stroke-linejoin="miter" stroke-width=".25"/><rect x="108" y="207" width="9" height="9" stroke="black" stroke-opacity=".2" stroke-linecap="round" stroke-linejoin="miter" stroke-width=".25"/><rect x="117" y="144" width="9" height="9" stroke="black" stroke-opacity=".2" stroke-linecap="round" stroke-linejoin="miter" stroke-width=".25"/><rect x="117" y="153" width="9" height="9" stroke="black" stroke-opacity=".2" stroke-linecap="round" stroke-linejoin="miter" stroke-width=".25"/><rect x="117" y="162" width="9" height="9" stroke="black" stroke-opacity=".2" stroke-linecap="round" stroke-linejoin="miter" stroke-width=".25"/><rect x="117" y="171" width="9" height="9" stroke="black" stroke-opacity=".2" stroke-linecap="round" stroke-linejoin="miter" stroke-width=".25"/><rect x="117" y="180" width="9" height="9" stroke="black" stroke-opacity=".2" stroke-linecap="round" stroke-linejoin="miter" stroke-width=".25"/><rect x="117" y="189" width="9" height="9" stroke="black" stroke-opacity=".2" stroke-linecap="round" stroke-linejoin="miter" stroke-width=".25"/><rect x="117" y="198" width="9" height="9" stroke="black" stroke-opacity=".2" stroke-linecap="round" stroke-linejoin="miter" stroke-width=".25"/><rect x="117" y="207" width="9" height="9" stroke="black" stroke-opacity=".2" stroke-linecap="round" stroke-linejoin="miter" stroke-width=".25"/><rect x="126" y="144" width="9" height="9" stroke="black" stroke-opacity=".2" stroke-linecap="round" stroke-linejoin="miter" stroke-width=".25"/><rect x="126" y="153" width="9" height="9" stroke="black" stroke-opacity=".2" stroke-linecap="round" stroke-linejoin="miter" stroke-width=".25"/><rect x="126" y="162" width="9" height="9" stroke="black" stroke-opacity=".2" stroke-linecap="round" stroke-linejoin="miter" stroke-width=".25"/><rect x="126" y="171" width="9" height="9" stroke="black" stroke-opacity=".2" stroke-linecap="round" stroke-linejoin="miter" stroke-width=".25"/><rect x="126" y="180" width="9" height="9" stroke="black" stroke-opacity=".2" stroke-linecap="round" stroke-linejoin="miter" stroke-width=".25"/><rect x="126" y="189" width="9" height="9" stroke="black" stroke-opacity=".2" stroke-linecap="round" stroke-linejoin="miter" stroke-width=".25"/><rect x="126" y="198" width="9" height="9" stroke="black" stroke-opacity=".2" stroke-linecap="round" stroke-linejoin="miter" stroke-width=".25"/><rect x="126" y="207" width="9" height="9" stroke="black" stroke-opacity=".2" stroke-linecap="round" stroke-linejoin="miter" stroke-width=".25"/><rect x="135" y="144" width="9" height="9" stroke="black" stroke-opacity=".2" stroke-linecap="round" stroke-linejoin="miter" stroke-width=".25"/><rect x="135" y="153" width="9" height="9" stroke="black" stroke-opacity=".2" stroke-linecap="round" stroke-linejoin="miter" stroke-width=".25"/><rect x="135" y="162" width="9" height="9" stroke="black" stroke-opacity=".2" stroke-linecap="round" stroke-linejoin="miter" stroke-width=".25"/><rect x="135" y="171" width="9" height="9" stroke="black" stroke-opacity=".2" stroke-linecap="round" stroke-linejoin="miter" stroke-width=".25"/><rect x="135" y="180" width="9" height="9" stroke="black" stroke-opacity=".2" stroke-linecap="round" stroke-linejoin="miter" stroke-width=".25"/><rect x="135" y="189" width="9" height="9" stroke="black" stroke-opacity=".2" stroke-linecap="round" stroke-linejoin="miter" stroke-width=".25"/><rect x="135" y="198" width="9" height="9" stroke="black" stroke-opacity=".2" stroke-linecap="round" stroke-linejoin="miter" stroke-width=".25"/><rect x="135" y="207" width="9" height="9" stroke="black" stroke-opacity=".2" stroke-linecap="round" stroke-linejoin="miter" stroke-width=".25"/><rect x="144" y="144" width="9" height="9" stroke="black" stroke-opacity=".2" stroke-linecap="round" stroke-linejoin="miter" stroke-width=".25"/><rect x="144" y="153" width="9" height="9" stroke="black" stroke-opacity=".2" stroke-linecap="round" stroke-linejoin="miter" stroke-width=".25"/><rect x="144" y="162" width="9" height="9" stroke="black" stroke-opacity=".2" stroke-linecap="round" stroke-linejoin="miter" stroke-width=".25"/><rect x="144" y="171" width="9" height="9" stroke="black" stroke-opacity=".2" stroke-linecap="round" stroke-linejoin="miter" stroke-width=".25"/><rect x="144" y="180" width="9" height="9" stroke="black" stroke-opacity=".2" stroke-linecap="round" stroke-linejoin="miter" stroke-width=".25"/><rect x="144" y="189" width="9" height="9" stroke="black" stroke-opacity=".2" stroke-linecap="round" stroke-linejoin="miter" stroke-width=".25"/><rect x="144" y="198" width="9" height="9" stroke="black" stroke-opacity=".2" stroke-linecap="round" stroke-linejoin="miter" stroke-width=".25"/><rect x="144" y="207" width="9" height="9" stroke="black" stroke-opacity=".2" stroke-linecap="round" stroke-linejoin="miter" stroke-width=".25"/><rect x="153" y="144" width="9" height="9" stroke="black" stroke-opacity=".2" stroke-linecap="round" stroke-linejoin="miter" stroke-width=".25"/><rect x="153" y="153" width="9" height="9" stroke="black" stroke-opacity=".2" stroke-linecap="round" stroke-linejoin="miter" stroke-width=".25"/><rect x="153" y="162" width="9" height="9" stroke="black" stroke-opacity=".2" stroke-linecap="round" stroke-linejoin="miter" stroke-width=".25"/><rect x="153" y="171" width="9" height="9" stroke="black" stroke-opacity=".2" stroke-linecap="round" stroke-linejoin="miter" stroke-width=".25"/><rect x="153" y="180" width="9" height="9" stroke="black" stroke-opacity=".2" stroke-linecap="round" stroke-linejoin="miter" stroke-width=".25"/><rect x="153" y="189" width="9" height="9" stroke="black" stroke-opacity=".2" stroke-linecap="round" stroke-linejoin="miter" stroke-width=".25"/><rect x="153" y="198" width="9" height="9" stroke="black" stroke-opacity=".2" stroke-linecap="round" stroke-linejoin="miter" stroke-width=".25"/><rect x="153" y="207" width="9" height="9" stroke="black" stroke-opacity=".2" stroke-linecap="round" stroke-linejoin="miter" stroke-width=".25"/><rect x="162" y="144" width="9" height="9" stroke="black" stroke-opacity=".2" stroke-linecap="round" stroke-linejoin="miter" stroke-width=".25"/><rect x="162" y="153" width="9" height="9" stroke="black" stroke-opacity=".2" stroke-linecap="round" stroke-linejoin="miter" stroke-width=".25"/><rect x="162" y="162" width="9" height="9" stroke="black" stroke-opacity=".2" stroke-linecap="round" stroke-linejoin="miter" stroke-width=".25"/><rect x="162" y="171" width="9" height="9" stroke="black" stroke-opacity=".2" stroke-linecap="round" stroke-linejoin="miter" stroke-width=".25"/><rect x="162" y="180" width="9" height="9" stroke="black" stroke-opacity=".2" stroke-linecap="round" stroke-linejoin="miter" stroke-width=".25"/><rect x="162" y="189" width="9" height="9" stroke="black" stroke-opacity=".2" stroke-linecap="round" stroke-linejoin="miter" stroke-width=".25"/><rect x="162" y="198" width="9" height="9" stroke="black" stroke-opacity=".2" stroke-linecap="round" stroke-linejoin="miter" stroke-width=".25"/><rect x="162" y="207" width="9" height="9" stroke="black" stroke-opacity=".2" stroke-linecap="round" stroke-linejoin="miter" stroke-width=".25"/><rect x="171" y="144" width="9" height="9" stroke="black" stroke-opacity=".2" stroke-linecap="round" stroke-linejoin="miter" stroke-width=".25"/><rect x="171" y="153" width="9" height="9" stroke="black" stroke-opacity=".2" stroke-linecap="round" stroke-linejoin="miter" stroke-width=".25"/><rect x="171" y="162" width="9" height="9" stroke="black" stroke-opacity=".2" stroke-linecap="round" stroke-linejoin="miter" stroke-width=".25"/><rect x="171" y="171" width="9" height="9" stroke="black" stroke-opacity=".2" stroke-linecap="round" stroke-linejoin="miter" stroke-width=".25"/><rect x="171" y="180" width="9" height="9" stroke="black" stroke-opacity=".2" stroke-linecap="round" stroke-linejoin="miter" stroke-width=".25"/><rect x="171" y="189" width="9" height="9" stroke="black" stroke-opacity=".2" stroke-linecap="round" stroke-linejoin="miter" stroke-width=".25"/><rect x="171" y="198" width="9" height="9" stroke="black" stroke-opacity=".2" stroke-linecap="round" stroke-linejoin="miter" stroke-width=".25"/><rect x="171" y="207" width="9" height="9" stroke="black" stroke-opacity=".2" stroke-linecap="round" stroke-linejoin="miter" stroke-width=".25"/><rect x="180" y="144" width="9" height="9" stroke="black" stroke-opacity=".2" stroke-linecap="round" stroke-linejoin="miter" stroke-width=".25"/><rect x="180" y="153" width="9" height="9" stroke="black" stroke-opacity=".2" stroke-linecap="round" stroke-linejoin="miter" stroke-width=".25"/><rect x="180" y="162" width="9" height="9" stroke="black" stroke-opacity=".2" stroke-linecap="round" stroke-linejoin="miter" stroke-width=".25"/><rect x="180" y="171" width="9" height="9" stroke="black" stroke-opacity=".2" stroke-linecap="round" stroke-linejoin="miter" stroke-width=".25"/><rect x="180" y="180" width="9" height="9" stroke="black" stroke-opacity=".2" stroke-linecap="round" stroke-linejoin="miter" stroke-width=".25"/><rect x="180" y="189" width="9" height="9" stroke="black" stroke-opacity=".2" stroke-linecap="round" stroke-linejoin="miter" stroke-width=".25"/><rect x="180" y="198" width="9" height="9" stroke="black" stroke-opacity=".2" stroke-linecap="round" stroke-linejoin="miter" stroke-width=".25"/><rect x="180" y="207" width="9" height="9" stroke="black" stroke-opacity=".2" stroke-linecap="round" stroke-linejoin="miter" stroke-width=".25"/><rect x="189" y="144" width="9" height="9" stroke="black" stroke-opacity=".2" stroke-linecap="round" stroke-linejoin="miter" stroke-width=".25"/><rect x="189" y="153" width="9" height="9" stroke="black" stroke-opacity=".2" stroke-linecap="round" stroke-linejoin="miter" stroke-width=".25"/><rect x="189" y="162" width="9" height="9" stroke="black" stroke-opacity=".2" stroke-linecap="round" stroke-linejoin="miter" stroke-width=".25"/><rect x="189" y="171" width="9" height="9" stroke="black" stroke-opacity=".2" stroke-linecap="round" stroke-linejoin="miter" stroke-width=".25"/><rect x="189" y="180" width="9" height="9" stroke="black" stroke-opacity=".2" stroke-linecap="round" stroke-linejoin="miter" stroke-width=".25"/><rect x="189" y="189" width="9" height="9" stroke="black" stroke-opacity=".2" stroke-linecap="round" stroke-linejoin="miter" stroke-width=".25"/><rect x="189" y="198" width="9" height="9" stroke="black" stroke-opacity=".2" stroke-linecap="round" stroke-linejoin="miter" stroke-width=".25"/><rect x="189" y="207" width="9" height="9" stroke="black" stroke-opacity=".2" stroke-linecap="round" stroke-linejoin="miter" stroke-width=".25"/><rect x="198" y="144" width="9" height="9" stroke="black" stroke-opacity=".2" stroke-linecap="round" stroke-linejoin="miter" stroke-width=".25"/><rect x="198" y="153" width="9" height="9" stroke="black" stroke-opacity=".2" stroke-linecap="round" stroke-linejoin="miter" stroke-width=".25"/><rect x="198" y="162" width="9" height="9" stroke="black" stroke-opacity=".2" stroke-linecap="round" stroke-linejoin="miter" stroke-width=".25"/><rect x="198" y="171" width="9" height="9" stroke="black" stroke-opacity=".2" stroke-linecap="round" stroke-linejoin="miter" stroke-width=".25"/><rect x="198" y="180" width="9" height="9" stroke="black" stroke-opacity=".2" stroke-linecap="round" stroke-linejoin="miter" stroke-width=".25"/><rect x="198" y="189" width="9" height="9" stroke="black" stroke-opacity=".2" stroke-linecap="round" stroke-linejoin="miter" stroke-width=".25"/><rect x="198" y="198" width="9" height="9" stroke="black" stroke-opacity=".2" stroke-linecap="round" stroke-linejoin="miter" stroke-width=".25"/><rect x="198" y="207" width="9" height="9" stroke="black" stroke-opacity=".2" stroke-linecap="round" stroke-linejoin="miter" stroke-width=".25"/><rect x="207" y="144" width="9" height="9" stroke="black" stroke-opacity=".2" stroke-linecap="round" stroke-linejoin="miter" stroke-width=".25"/><rect x="207" y="153" width="9" height="9" stroke="black" stroke-opacity=".2" stroke-linecap="round" stroke-linejoin="miter" stroke-width=".25"/><rect x="207" y="162" width="9" height="9" stroke="black" stroke-opacity=".2" stroke-linecap="round" stroke-linejoin="miter" stroke-width=".25"/><rect x="207" y="171" width="9" height="9" stroke="black" stroke-opacity=".2" stroke-linecap="round" stroke-linejoin="miter" stroke-width=".25"/><rect x="207" y="180" width="9" height="9" stroke="black" stroke-opacity=".2" stroke-linecap="round" stroke-linejoin="miter" stroke-width=".25"/><rect x="207" y="189" width="9" height="9" stroke="black" stroke-opacity=".2" stroke-linecap="round" stroke-linejoin="miter" stroke-width=".25"/><rect x="207" y="198" width="9" height="9" stroke="black" stroke-opacity=".2" stroke-linecap="round" stroke-linejoin="miter" stroke-width=".25"/><rect x="207" y="207" width="9" height="9" stroke="black" stroke-opacity=".2" stroke-linecap="round" stroke-linejoin="miter" stroke-width=".25"/><rect x="72" y="144" width="72" height="72" fill="white"/><rect x="72" y="144" width="72" height="72" stroke="black" stroke-linecap="round" stroke-linejoin="miter" stroke-width="2"/><rect x="144" y="72" width="72" height="72" fill="white"/><rect x="144" y="72" width="72" height="72" stroke="black" stroke-linecap="round" stroke-linejoin="miter" stroke-width="2"/><line x1="144" y1="144" x2="216" y2="216" stroke="black" stroke-linecap="round" stroke-linejoin="miter" stroke-width="2"/></g></g></svg>
