<?xml version="1.0" encoding="UTF-8"?>
<svg xmlns="http://www.w3.org/2000/svg" xmlns:xlink="http://www.w3.org/1999/xlink" width="160pt" height="160pt" viewBox="0 0 160 160" version="1.1">
<g id="surface1">
<path style=" stroke:none;fill-rule:nonzero;fill:rgb(65.098572%,10.588074%,19.215393%);fill-opacity:1;" d="M 3 75 L 75 75 L 75 147 L 3 147 Z M 3 75 "/>
<path style="fill:none;stroke-width:3;stroke-linecap:square;stroke-linejoin:miter;stroke:rgb(65.098572%,10.588074%,19.215393%);stroke-opacity:1;stroke-miterlimit:10;" d="M 72.5 360.5 L 144.5 360.5 L 144.5 432.5 L 72.5 432.5 Z M 72.5 360.5 " transform="matrix(1,0,0,1,-69,-285)"/>
<path style=" stroke:none;fill-rule:nonzero;fill:rgb(65.098572%,10.195923%,19.215393%);fill-opacity:1;" d="M 75 3 L 147 3 L 147 75 L 75 75 Z M 75 3 "/>
<path style="fill:none;stroke-width:3;stroke-linecap:square;stroke-linejoin:miter;stroke:rgb(65.098572%,10.588074%,19.215393%);stroke-opacity:1;stroke-miterlimit:10;" d="M 144.5 288.5 L 216.5 288.5 L 216.5 360.5 L 144.5 360.5 Z M 144.5 288.5 " transform="matrix(1,0,0,1,-69,-285)"/>
<path style="fill:none;stroke-width:3;stroke-linecap:square;stroke-linejoin:miter;stroke:rgb(65.098572%,10.588074%,19.215393%);stroke-opacity:1;stroke-miterlimit:10;" d="M 144 360 L 216 432 " transform="matrix(1,0,0,1,-69,-285)"/>
</g>
</svg>
